<svg width="48" height="38" viewBox="0 0 48 38" fill="none" xmlns="http://www.w3.org/2000/svg">
<path d="M0.722656 10V2.89062H2.82227C3.45052 2.89062 4.00716 3.0306 4.49219 3.31055C4.98047 3.59049 5.35807 3.98763 5.625 4.50195C5.89193 5.01628 6.02539 5.60547 6.02539 6.26953V6.62598C6.02539 7.2998 5.8903 7.89225 5.62012 8.40332C5.35319 8.91439 4.9707 9.30827 4.47266 9.58496C3.97786 9.86165 3.40983 10 2.76855 10H0.722656ZM1.95801 3.88672V9.01367H2.76367C3.41146 9.01367 3.90788 8.81185 4.25293 8.4082C4.60124 8.0013 4.77865 7.41862 4.78516 6.66016V6.26465C4.78516 5.49316 4.61751 4.90397 4.28223 4.49707C3.94694 4.09017 3.46029 3.88672 2.82227 3.88672H1.95801ZM13.482 8.24219L14.5758 2.89062H15.8014L14.1607 10H12.9791L11.6266 4.80957L10.2447 10H9.0582L7.41758 2.89062H8.64316L9.74668 8.23242L11.1041 2.89062H12.1393L13.482 8.24219ZM18.6584 10H17.4279V2.89062H18.6584V10ZM20.827 10V2.89062H22.9266C23.5548 2.89062 24.1115 3.0306 24.5965 3.31055C25.0848 3.59049 25.4624 3.98763 25.7293 4.50195C25.9962 5.01628 26.1297 5.60547 26.1297 6.26953V6.62598C26.1297 7.2998 25.9946 7.89225 25.7244 8.40332C25.4575 8.91439 25.075 9.30827 24.577 9.58496C24.0822 9.86165 23.5141 10 22.8729 10H20.827ZM22.0623 3.88672V9.01367H22.868C23.5158 9.01367 24.0122 8.81185 24.3572 8.4082C24.7055 8.0013 24.8829 7.41862 24.8895 6.66016V6.26465C24.8895 5.49316 24.7218 4.90397 24.3865 4.49707C24.0512 4.09017 23.5646 3.88672 22.9266 3.88672H22.0623ZM31.8822 8.34473H29.1283L28.5521 10H27.268L29.9535 2.89062H31.0619L33.7523 10H32.4633L31.8822 8.34473ZM29.475 7.34863H31.5355L30.5053 4.39941L29.475 7.34863ZM38.9287 8.16895C38.9287 7.85645 38.818 7.61556 38.5967 7.44629C38.3786 7.27702 37.9831 7.10612 37.4102 6.93359C36.8372 6.76107 36.3815 6.56901 36.043 6.35742C35.3952 5.95052 35.0713 5.41992 35.0713 4.76562C35.0713 4.19271 35.304 3.7207 35.7695 3.34961C36.2383 2.97852 36.8454 2.79297 37.5908 2.79297C38.0856 2.79297 38.5267 2.88411 38.9141 3.06641C39.3014 3.2487 39.6058 3.50911 39.8271 3.84766C40.0485 4.18294 40.1592 4.55566 40.1592 4.96582H38.9287C38.9287 4.59473 38.8115 4.30501 38.5771 4.09668C38.346 3.88509 38.014 3.7793 37.5811 3.7793C37.1774 3.7793 36.8633 3.86556 36.6387 4.03809C36.4173 4.21061 36.3066 4.4515 36.3066 4.76074C36.3066 5.02116 36.4271 5.23926 36.668 5.41504C36.9089 5.58757 37.306 5.75684 37.8594 5.92285C38.4128 6.08561 38.8571 6.27279 39.1924 6.48438C39.5277 6.69271 39.7734 6.93359 39.9297 7.20703C40.0859 7.47721 40.1641 7.7946 40.1641 8.15918C40.1641 8.75163 39.9362 9.22363 39.4805 9.5752C39.028 9.9235 38.4128 10.0977 37.6348 10.0977C37.1204 10.0977 36.6468 10.0033 36.2139 9.81445C35.7842 9.6224 35.4489 9.35872 35.208 9.02344C34.9704 8.68815 34.8516 8.29753 34.8516 7.85156H36.0869C36.0869 8.25521 36.2204 8.56771 36.4873 8.78906C36.7542 9.01042 37.1367 9.12109 37.6348 9.12109C38.0645 9.12109 38.3867 9.03483 38.6016 8.8623C38.8197 8.68652 38.9287 8.4554 38.9287 8.16895ZM45.8775 8.34473H43.1236L42.5475 10H41.2633L43.9488 2.89062H45.0572L47.7477 10H46.4586L45.8775 8.34473ZM43.4703 7.34863H45.5309L44.5006 4.39941L43.4703 7.34863Z" fill="black" fill-opacity="0.6"/>
<path d="M4.43848 20.1689C4.43848 19.8564 4.3278 19.6156 4.10645 19.4463C3.88835 19.277 3.49284 19.1061 2.91992 18.9336C2.34701 18.7611 1.89128 18.569 1.55273 18.3574C0.904948 17.9505 0.581055 17.4199 0.581055 16.7656C0.581055 16.1927 0.813802 15.7207 1.2793 15.3496C1.74805 14.9785 2.35514 14.793 3.10059 14.793C3.59538 14.793 4.03646 14.8841 4.42383 15.0664C4.8112 15.2487 5.11556 15.5091 5.33691 15.8477C5.55827 16.1829 5.66895 16.5557 5.66895 16.9658H4.43848C4.43848 16.5947 4.32129 16.305 4.08691 16.0967C3.85579 15.8851 3.52376 15.7793 3.09082 15.7793C2.68717 15.7793 2.37305 15.8656 2.14844 16.0381C1.92708 16.2106 1.81641 16.4515 1.81641 16.7607C1.81641 17.0212 1.93685 17.2393 2.17773 17.415C2.41862 17.5876 2.81576 17.7568 3.36914 17.9229C3.92253 18.0856 4.36686 18.2728 4.70215 18.4844C5.03743 18.6927 5.2832 18.9336 5.43945 19.207C5.5957 19.4772 5.67383 19.7946 5.67383 20.1592C5.67383 20.7516 5.44596 21.2236 4.99023 21.5752C4.53776 21.9235 3.92253 22.0977 3.14453 22.0977C2.63021 22.0977 2.15658 22.0033 1.72363 21.8145C1.29395 21.6224 0.958659 21.3587 0.717773 21.0234C0.480143 20.6882 0.361328 20.2975 0.361328 19.8516H1.59668C1.59668 20.2552 1.73014 20.5677 1.99707 20.7891C2.264 21.0104 2.64648 21.1211 3.14453 21.1211C3.57422 21.1211 3.89648 21.0348 4.11133 20.8623C4.32943 20.6865 4.43848 20.4554 4.43848 20.1689ZM10.8873 20.3447H8.1334L7.55723 22H6.27305L8.95859 14.8906H10.067L12.7574 22H11.4684L10.8873 20.3447ZM8.48008 19.3486H10.5406L9.51035 16.3994L8.48008 19.3486ZM15.3195 14.8906L17.3703 20.3398L19.4162 14.8906H21.0129V22H19.7824V19.6562L19.9045 16.5215L17.8049 22H16.9211L14.8264 16.5264L14.9484 19.6562V22H13.718V14.8906H15.3195ZM26.3436 20.1689C26.3436 19.8564 26.2329 19.6156 26.0115 19.4463C25.7934 19.277 25.3979 19.1061 24.825 18.9336C24.2521 18.7611 23.7964 18.569 23.4578 18.3574C22.81 17.9505 22.4861 17.4199 22.4861 16.7656C22.4861 16.1927 22.7189 15.7207 23.1844 15.3496C23.6531 14.9785 24.2602 14.793 25.0057 14.793C25.5005 14.793 25.9415 14.8841 26.3289 15.0664C26.7163 15.2487 27.0206 15.5091 27.242 15.8477C27.4633 16.1829 27.574 16.5557 27.574 16.9658H26.3436C26.3436 16.5947 26.2264 16.305 25.992 16.0967C25.7609 15.8851 25.4288 15.7793 24.9959 15.7793C24.5923 15.7793 24.2781 15.8656 24.0535 16.0381C23.8322 16.2106 23.7215 16.4515 23.7215 16.7607C23.7215 17.0212 23.8419 17.2393 24.0828 17.415C24.3237 17.5876 24.7208 17.7568 25.2742 17.9229C25.8276 18.0856 26.2719 18.2728 26.6072 18.4844C26.9425 18.6927 27.1883 18.9336 27.3445 19.207C27.5008 19.4772 27.5789 19.7946 27.5789 20.1592C27.5789 20.7516 27.351 21.2236 26.8953 21.5752C26.4428 21.9235 25.8276 22.0977 25.0496 22.0977C24.5353 22.0977 24.0617 22.0033 23.6287 21.8145C23.199 21.6224 22.8637 21.3587 22.6229 21.0234C22.3852 20.6882 22.2664 20.2975 22.2664 19.8516H23.5018C23.5018 20.2552 23.6352 20.5677 23.9021 20.7891C24.1691 21.0104 24.5516 21.1211 25.0496 21.1211C25.4793 21.1211 25.8016 21.0348 26.0164 20.8623C26.2345 20.6865 26.3436 20.4554 26.3436 20.1689ZM32.7924 20.3447H30.0385L29.4623 22H28.1781L30.8637 14.8906H31.9721L34.6625 22H33.3734L32.7924 20.3447ZM30.3852 19.3486H32.4457L31.4154 16.3994L30.3852 19.3486ZM38.2354 19.2607H36.8584V22H35.623V14.8906H38.123C38.9434 14.8906 39.5765 15.0745 40.0225 15.4424C40.4684 15.8102 40.6914 16.3424 40.6914 17.0391C40.6914 17.5143 40.5758 17.9131 40.3447 18.2354C40.1169 18.5544 39.7979 18.8001 39.3877 18.9727L40.9844 21.9365V22H39.6611L38.2354 19.2607ZM36.8584 18.2695H38.1279C38.5446 18.2695 38.8701 18.1654 39.1045 17.957C39.3389 17.7454 39.4561 17.4574 39.4561 17.0928C39.4561 16.7119 39.347 16.4173 39.1289 16.209C38.9141 16.0007 38.5918 15.8932 38.1621 15.8867H36.8584V18.2695ZM45.9928 20.3447H43.2389L42.6627 22H41.3785L44.0641 14.8906H45.1725L47.8629 22H46.5738L45.9928 20.3447ZM43.5855 19.3486H45.6461L44.6158 16.3994L43.5855 19.3486Z" fill="#263238" fill-opacity="0.8"/>
<path d="M2.02637 35H0.795898V27.8906H2.02637V35ZM8.68457 35H7.44922L4.28027 29.9561V35H3.04492V27.8906H4.28027L7.45898 32.9541V27.8906H8.68457V35ZM9.64453 35V27.8906H11.7441C12.3724 27.8906 12.929 28.0306 13.4141 28.3105C13.9023 28.5905 14.2799 28.9876 14.5469 29.502C14.8138 30.0163 14.9473 30.6055 14.9473 31.2695V31.626C14.9473 32.2998 14.8122 32.8923 14.542 33.4033C14.2751 33.9144 13.8926 34.3083 13.3945 34.585C12.8997 34.8617 12.3317 35 11.6904 35H9.64453ZM10.8799 28.8867V34.0137H11.6855C12.3333 34.0137 12.8298 33.8118 13.1748 33.4082C13.5231 33.0013 13.7005 32.4186 13.707 31.6602V31.2646C13.707 30.4932 13.5394 29.904 13.2041 29.4971C12.8688 29.0902 12.3822 28.8867 11.7441 28.8867H10.8799ZM21.3516 31.6309C21.3516 32.3275 21.2311 32.9395 20.9902 33.4668C20.7493 33.9909 20.4043 34.3945 19.9551 34.6777C19.5091 34.9577 18.9948 35.0977 18.4121 35.0977C17.8359 35.0977 17.3216 34.9577 16.8691 34.6777C16.4199 34.3945 16.0716 33.9925 15.8242 33.4717C15.5801 32.9508 15.4564 32.3503 15.4531 31.6699V31.2695C15.4531 30.5762 15.5752 29.9642 15.8193 29.4336C16.0667 28.903 16.4134 28.4977 16.8594 28.2178C17.3086 27.9346 17.8229 27.793 18.4023 27.793C18.9818 27.793 19.4945 27.9329 19.9404 28.2129C20.3896 28.4896 20.7363 28.89 20.9805 29.4141C21.2246 29.9349 21.3483 30.542 21.3516 31.2354V31.6309ZM20.1162 31.2598C20.1162 30.472 19.9665 29.8682 19.667 29.4482C19.3708 29.0283 18.9492 28.8184 18.4023 28.8184C17.8685 28.8184 17.4502 29.0283 17.1475 29.4482C16.848 29.8649 16.695 30.4557 16.6885 31.2207V31.6309C16.6885 32.4121 16.8398 33.016 17.1426 33.4424C17.4486 33.8688 17.8717 34.082 18.4121 34.082C18.959 34.082 19.3789 33.8737 19.6719 33.457C19.9681 33.0404 20.1162 32.4316 20.1162 31.6309V31.2598ZM27.7217 35H26.4863L23.3174 29.9561V35H22.082V27.8906H23.3174L26.4961 32.9541V27.8906H27.7217V35ZM32.8369 31.8262H29.917V34.0137H33.3301V35H28.6816V27.8906H33.2959V28.8867H29.917V30.8496H32.8369V31.8262ZM37.5518 33.1689C37.5518 32.8564 37.4411 32.6156 37.2197 32.4463C37.0016 32.277 36.6061 32.1061 36.0332 31.9336C35.4603 31.7611 35.0046 31.569 34.666 31.3574C34.0182 30.9505 33.6943 30.4199 33.6943 29.7656C33.6943 29.1927 33.9271 28.7207 34.3926 28.3496C34.8613 27.9785 35.4684 27.793 36.2139 27.793C36.7087 27.793 37.1497 27.8841 37.5371 28.0664C37.9245 28.2487 38.2288 28.5091 38.4502 28.8477C38.6715 29.1829 38.7822 29.5557 38.7822 29.9658H37.5518C37.5518 29.5947 37.4346 29.305 37.2002 29.0967C36.9691 28.8851 36.637 28.7793 36.2041 28.7793C35.8005 28.7793 35.4863 28.8656 35.2617 29.0381C35.0404 29.2106 34.9297 29.4515 34.9297 29.7607C34.9297 30.0212 35.0501 30.2393 35.291 30.415C35.5319 30.5876 35.929 30.7568 36.4824 30.9229C37.0358 31.0856 37.4801 31.2728 37.8154 31.4844C38.1507 31.6927 38.3965 31.9336 38.5527 32.207C38.709 32.4772 38.7871 32.7946 38.7871 33.1592C38.7871 33.7516 38.5592 34.2236 38.1035 34.5752C37.651 34.9235 37.0358 35.0977 36.2578 35.0977C35.7435 35.0977 35.2699 35.0033 34.8369 34.8145C34.4072 34.6224 34.0719 34.3587 33.8311 34.0234C33.5934 33.6882 33.4746 33.2975 33.4746 32.8516H34.71C34.71 33.2552 34.8434 33.5677 35.1104 33.7891C35.3773 34.0104 35.7598 34.1211 36.2578 34.1211C36.6875 34.1211 37.0098 34.0348 37.2246 33.8623C37.4427 33.6865 37.5518 33.4554 37.5518 33.1689ZM40.6748 35H39.4443V27.8906H40.6748V35ZM45.7607 33.3447H43.0068L42.4307 35H41.1465L43.832 27.8906H44.9404L47.6309 35H46.3418L45.7607 33.3447ZM43.3535 32.3486H45.4141L44.3838 29.3994L43.3535 32.3486Z" fill="#263238"/>
</svg>
